<?xml version="1.0" standalone="no"?>
<!DOCTYPE svg PUBLIC "-//W3C//DTD SVG 20010904//EN"
 "http://www.w3.org/TR/2001/REC-SVG-20010904/DTD/svg10.dtd">
<svg version="1.0" xmlns="http://www.w3.org/2000/svg"
 width="256.000000pt" height="256.000000pt" viewBox="0 0 256.000000 256.000000"
 preserveAspectRatio="xMidYMid meet">
<metadata>
Created by potrace 1.14, written by Peter Selinger 2001-2017
</metadata>
<g transform="translate(0.000000,256.000000) scale(0.100000,-0.100000)"
fill="#000000" stroke="none">
<path d="M477 2554 c-3 -4 -28 -10 -54 -15 -64 -12 -177 -69 -235 -119 -26
-22 -67 -71 -91 -108 -41 -61 -51 -86 -86 -207 -9 -29 -11 -253 -9 -840 3
-736 4 -805 21 -860 53 -177 177 -309 343 -366 l69 -24 850 0 850 0 70 29
c157 64 261 176 323 343 16 44 17 113 17 893 0 928 4 864 -60 990 -39 76 -143
181 -217 218 -139 70 -97 67 -984 70 -440 1 -803 -1 -807 -4z m1685 -173 c69
-34 158 -117 158 -146 0 -9 -4 -14 -10 -10 -5 3 -460 6 -1012 5 -572 0 -1009
4 -1017 9 -9 6 -19 4 -29 -5 -25 -25 -25 -7 -1 27 49 69 117 117 204 145 31
10 212 13 840 11 l800 -2 67 -34z m-679 -446 c171 -44 257 -144 257 -297 0
-50 -6 -86 -20 -115 -25 -57 -98 -126 -154 -147 -43 -17 -61 -36 -33 -36 26
-1 128 -49 166 -79 25 -20 52 -56 72 -96 30 -61 31 -69 27 -152 -3 -65 -10
-99 -27 -131 -34 -66 -93 -125 -156 -156 -103 -50 -163 -57 -513 -54 l-317 3
-3 638 -2 637 323 0 c254 0 335 -3 380 -15z"/>
<path d="M1055 1748 c-3 -8 -4 -86 -3 -173 l3 -160 110 -3 c221 -6 309 45 310
178 0 69 -26 116 -80 144 -34 18 -61 21 -188 24 -117 3 -148 1 -152 -10z"/>
<path d="M1054 1237 c-2 -7 -3 -94 -2 -192 l3 -180 165 0 c147 0 169 2 204 21
93 48 130 152 88 247 -39 88 -122 117 -334 117 -87 0 -120 -3 -124 -13z"/>
</g>
</svg>
